<?xml version="1.0" encoding="UTF-8" standalone="no"?> <svg width="300" height="300" viewBox="0 0 48 48" fill="none" xmlns="http://www.w3.org/2000/svg">
<path d="M42.178 27.436L39.624 23.5C40.1815 20.8636 40.1039 18.1323 39.3975 15.5318C38.6911 12.9313 37.3763 10.5362 35.5615 8.5441C33.7468 6.55204 31.4842 5.02025 28.9606 4.0752C26.437 3.13016 23.7248 2.79897 21.048 3.109C17.3078 3.5575 13.8204 5.22846 11.1274 7.86237C8.43437 10.4963 6.68642 13.9457 6.155 17.675C5.65819 21.2704 6.32987 24.9303 8.071 28.115C9.89215 31.4242 10.3951 35.2995 9.479 38.964L8.03 44.758C7.99324 44.9054 7.99054 45.0592 8.0221 45.2078C8.05366 45.3564 8.11866 45.4958 8.21215 45.6155C8.30565 45.7352 8.42519 45.8321 8.5617 45.8987C8.69821 45.9653 8.8481 46 9 46H25C25.2367 45.9999 25.4657 45.9158 25.6462 45.7627C25.8268 45.6097 25.9472 45.3975 25.986 45.164L26.828 40.111L33.128 40.898C33.7376 40.9741 34.3564 40.9198 34.9434 40.7386C35.5304 40.5575 36.0721 40.2536 36.5328 39.8472C36.9935 39.4408 37.3625 38.9411 37.6155 38.3813C37.8684 37.8215 37.9995 37.2143 38 36.6V31.678L41.243 30.378C41.5173 30.2682 41.7639 30.0991 41.965 29.8826C42.1661 29.6662 42.3168 29.408 42.4062 29.1264C42.4956 28.8448 42.5215 28.5469 42.482 28.2541C42.4426 27.9613 42.3387 27.6809 42.178 27.433V27.436ZM38 20C37.9895 21.0087 37.8773 22.0138 37.665 23H35.465C35.4885 22.8344 35.5005 22.6673 35.501 22.5C35.501 21.5717 35.1322 20.6815 34.4759 20.0251C33.8195 19.3687 32.9293 19 32.001 19C31.0727 19 30.1825 19.3687 29.5261 20.0251C28.8697 20.6815 28.501 21.5717 28.501 22.5C28.5015 22.6673 28.5135 22.8344 28.537 23H25V18C25 17.8143 24.9483 17.6322 24.8507 17.4743C24.753 17.3163 24.6133 17.1886 24.4472 17.1056C24.2811 17.0225 24.0952 16.9874 23.9102 17.004C23.7252 17.0207 23.5486 17.0886 23.4 17.2C23.1771 17.3671 22.9122 17.4689 22.6347 17.4939C22.3573 17.519 22.0783 17.4662 21.8292 17.3416C21.58 17.2171 21.3705 17.0256 21.224 16.7886C21.0776 16.5516 21 16.2786 21 16C21 15.7214 21.0776 15.4484 21.224 15.2114C21.3705 14.9744 21.58 14.7829 21.8292 14.6584C22.0783 14.5338 22.3573 14.481 22.6347 14.5061C22.9122 14.5311 23.1771 14.6329 23.4 14.8C23.5486 14.9114 23.7252 14.9793 23.9102 14.996C24.0952 15.0126 24.2811 14.9775 24.4472 14.8944C24.6133 14.8114 24.753 14.6837 24.8507 14.5257C24.9483 14.3678 25 14.1857 25 14V5.147C27.977 5.53135 30.7669 6.81122 33 8.817C34.5724 10.2251 35.8303 11.9487 36.6919 13.8756C37.5534 15.8025 37.9991 17.8893 38 20V20ZM8.138 17.94C8.60753 14.6523 10.1493 11.6115 12.524 9.28977C14.8987 6.96805 17.9735 5.49524 21.271 5.1C21.8451 5.03614 22.4223 5.00442 23 5.005V12.536C22.5032 12.4642 21.9968 12.5001 21.5151 12.6412C21.0334 12.7824 20.5877 13.0255 20.2083 13.354C19.8288 13.6826 19.5245 14.0889 19.3159 14.5454C19.1073 15.002 18.9993 15.4981 18.9993 16C18.9993 16.5019 19.1073 16.998 19.3159 17.4545C19.5245 17.9111 19.8288 18.3174 20.2083 18.646C20.5877 18.9745 21.0334 19.2176 21.5151 19.3588C21.9968 19.4999 22.5032 19.5358 23 19.464V23H18C17.8143 23 17.6322 23.0517 17.4743 23.1493C17.3163 23.247 17.1886 23.3867 17.1056 23.5528C17.0225 23.7189 16.9874 23.9048 17.004 24.0898C17.0207 24.2748 17.0886 24.4514 17.2 24.6C17.3671 24.8229 17.4689 25.0878 17.4939 25.3653C17.519 25.6427 17.4662 25.9217 17.3416 26.1708C17.2171 26.42 17.0256 26.6295 16.7886 26.776C16.5516 26.9224 16.2786 27 16 27C15.7214 27 15.4484 26.9224 15.2114 26.776C14.9744 26.6295 14.7829 26.42 14.6584 26.1708C14.5338 25.9217 14.481 25.6427 14.5061 25.3653C14.5311 25.0878 14.6329 24.8229 14.8 24.6C14.9114 24.4514 14.9793 24.2748 14.996 24.0898C15.0126 23.9048 14.9775 23.7189 14.8944 23.5528C14.8114 23.3867 14.6837 23.247 14.5257 23.1493C14.3678 23.0517 14.1857 23 14 23H8.311C7.97031 21.3349 7.91183 19.6244 8.138 17.94V17.94ZM9.825 27.154C9.44646 26.4629 9.12376 25.7426 8.86 25H12.536C12.5125 25.1656 12.5004 25.3327 12.5 25.5C12.5 26.4283 12.8687 27.3185 13.5251 27.9749C14.1815 28.6312 15.0717 29 16 29C16.9283 29 17.8185 28.6312 18.4749 27.9749C19.1313 27.3185 19.5 26.4283 19.5 25.5C19.4996 25.3327 19.4875 25.1656 19.464 25H23V30C23 30.1857 23.0517 30.3678 23.1493 30.5257C23.247 30.6837 23.3867 30.8114 23.5528 30.8944C23.7189 30.9775 23.9048 31.0126 24.0898 30.996C24.2748 30.9793 24.4514 30.9114 24.6 30.8C24.8229 30.6329 25.0878 30.5311 25.3653 30.5061C25.6427 30.481 25.9217 30.5338 26.1708 30.6584C26.42 30.7829 26.6295 30.9744 26.776 31.2114C26.9224 31.4484 27 31.7214 27 32C27 32.2786 26.9224 32.5516 26.776 32.7886C26.6295 33.0256 26.42 33.2171 26.1708 33.3416C25.9217 33.4662 25.6427 33.519 25.3653 33.4939C25.0878 33.4689 24.8229 33.3671 24.6 33.2C24.4514 33.0886 24.2748 33.0207 24.0898 33.004C23.9048 32.9874 23.7189 33.0225 23.5528 33.1056C23.3867 33.1886 23.247 33.3163 23.1493 33.4743C23.0517 33.6322 23 33.8143 23 34V44H10.28L11.418 39.448C12.4575 35.2958 11.8884 30.9041 9.825 27.154ZM37.259 29.82C36.8867 29.9669 36.5673 30.2227 36.3427 30.554C36.1181 30.8854 35.9986 31.2767 36 31.677V36.6C36.0001 37.0908 35.8456 37.5692 35.5584 37.9672C35.2712 38.3651 34.8659 38.6625 34.4 38.817C34.0686 38.9259 33.7172 38.9601 33.371 38.917L26.122 38.011C25.8659 37.9791 25.6074 38.0475 25.4005 38.2018C25.1936 38.3561 25.0544 38.5844 25.012 38.839L25 38.918V35.464C25.1656 35.4875 25.3327 35.4996 25.5 35.5C26.4283 35.5 27.3185 35.1312 27.9749 34.4749C28.6313 33.8185 29 32.9283 29 32C29 31.0717 28.6313 30.1815 27.9749 29.5251C27.3185 28.8687 26.4283 28.5 25.5 28.5C25.3327 28.5004 25.1656 28.5125 25 28.536V25H30C30.1857 25 30.3678 24.9483 30.5257 24.8506C30.6837 24.753 30.8114 24.6133 30.8944 24.4472C30.9775 24.2811 31.0126 24.0952 30.996 23.9102C30.9793 23.7252 30.9114 23.5486 30.8 23.4C30.6329 23.1771 30.5311 22.9121 30.5061 22.6347C30.481 22.3573 30.5338 22.0783 30.6584 21.8292C30.7829 21.58 30.9744 21.3705 31.2114 21.224C31.4484 21.0776 31.7214 21 32 21C32.2786 21 32.5516 21.0776 32.7886 21.224C33.0256 21.3705 33.2171 21.58 33.3416 21.8292C33.4662 22.0783 33.519 22.3573 33.4939 22.6347C33.4689 22.9121 33.3671 23.1771 33.2 23.4C33.0886 23.5486 33.0207 23.7252 33.004 23.9102C32.9874 24.0952 33.0225 24.2811 33.1056 24.4472C33.1886 24.6133 33.3163 24.753 33.4743 24.8506C33.6322 24.9483 33.8143 25 34 25H38.216L40.5 28.523L37.259 29.82Z" fill="black"/>
</svg>
