<?xml version="1.0" encoding="UTF-8" standalone="no"?> <svg width="300" height="300" viewBox="0 0 64 64" fill="none" xmlns="http://www.w3.org/2000/svg">
<path d="M51.36 44.9401L47.48 27.9401C47.4042 27.6061 47.2156 27.3084 46.9461 27.0971C46.6765 26.8858 46.3424 26.7739 46 26.7801H43.76C43.9077 22.2338 43.0151 17.7138 41.1504 13.5649C39.2856 9.416 36.4979 5.74779 33 2.84006C32.7296 2.61737 32.3902 2.49561 32.04 2.49561C31.6897 2.49561 31.3503 2.61737 31.08 2.84006C27.5747 5.74382 24.7795 9.41028 22.9077 13.5594C21.0359 17.7085 20.1371 22.2305 20.28 26.7801H18C17.661 26.7785 17.3315 26.8925 17.0661 27.1034C16.8006 27.3143 16.6151 27.6095 16.54 27.9401L12.66 44.9401C12.6105 45.1593 12.611 45.3868 12.6613 45.6059C12.7116 45.8249 12.8105 46.0299 12.9507 46.2055C13.0908 46.3812 13.2687 46.5232 13.4711 46.6209C13.6735 46.7186 13.8952 46.7696 14.12 46.7701H24.7V52.5601C24.7026 52.9571 24.8615 53.3371 25.1422 53.6178C25.423 53.8986 25.803 54.0574 26.2 54.0601H37.8C38.197 54.0574 38.577 53.8986 38.8577 53.6178C39.1385 53.3371 39.2974 52.9571 39.3 52.5601V46.7701H49.9C50.1241 46.7677 50.3449 46.7155 50.5464 46.6172C50.7478 46.519 50.9249 46.3771 51.0647 46.2019C51.2045 46.0266 51.3035 45.8225 51.3546 45.6042C51.4056 45.386 51.4075 45.1591 51.36 44.9401V44.9401ZM19.18 29.7801H20.24V43.7801H16L19.18 29.7801ZM23.24 28.2801C22.927 24.1463 23.5524 19.9953 25.0693 16.1372C26.5862 12.2791 28.9555 8.81374 32 6.00006C35.0459 8.81481 37.4159 12.2818 38.9329 16.1418C40.4499 20.0017 41.0745 24.1547 40.76 28.2901V43.7701H23.24V28.2801ZM36.3 51.0601H27.7V46.7701H36.3V51.0601ZM43.76 43.7701V29.7701H44.82L48.02 43.7701H43.76Z" fill="black"/>
<path d="M32 26.14C38.84 25.92 38.84 16 32 15.78C25.16 16 25.16 25.92 32 26.14ZM32 18.78C32.5782 18.78 33.1327 19.0097 33.5415 19.4185C33.9503 19.8274 34.18 20.3819 34.18 20.96C34.18 21.5382 33.9503 22.0927 33.5415 22.5015C33.1327 22.9104 32.5782 23.14 32 23.14C31.4218 23.14 30.8673 22.9104 30.4585 22.5015C30.0497 22.0927 29.82 21.5382 29.82 20.96C29.82 20.3819 30.0497 19.8274 30.4585 19.4185C30.8673 19.0097 31.4218 18.78 32 18.78Z" fill="black"/>
<path d="M29.56 55.1101C29.1622 55.1101 28.7806 55.2681 28.4993 55.5494C28.218 55.8308 28.06 56.2123 28.06 56.6101V60.0001C28.06 60.3979 28.218 60.7795 28.4993 61.0608C28.7806 61.3421 29.1622 61.5001 29.56 61.5001C29.9578 61.5001 30.3394 61.3421 30.6207 61.0608C30.902 60.7795 31.06 60.3979 31.06 60.0001V56.6101C31.06 56.2123 30.902 55.8308 30.6207 55.5494C30.3394 55.2681 29.9578 55.1101 29.56 55.1101V55.1101Z" fill="black"/>
<path d="M34.44 55.1101C34.0422 55.1101 33.6606 55.2681 33.3793 55.5494C33.098 55.8308 32.94 56.2123 32.94 56.6101V60.0001C32.94 60.3979 33.098 60.7795 33.3793 61.0608C33.6606 61.3421 34.0422 61.5001 34.44 61.5001C34.8378 61.5001 35.2194 61.3421 35.5007 61.0608C35.782 60.7795 35.94 60.3979 35.94 60.0001V56.6101C35.94 56.2123 35.782 55.8308 35.5007 55.5494C35.2194 55.2681 34.8378 55.1101 34.44 55.1101V55.1101Z" fill="black"/>
</svg>
