<svg width="48" height="48" viewBox="0 0 48 48" fill="none" xmlns="http://www.w3.org/2000/svg">
<path d="M47.2901 23.79C47.2901 29.2269 45.4049 34.4955 41.9558 38.6982C38.5067 42.901 33.7071 45.7778 28.3747 46.8385C23.0423 47.8991 17.5072 47.0781 12.7123 44.5152C7.91741 41.9522 4.15952 37.8061 2.07893 32.7831C-0.00166065 27.7601 -0.276232 22.1711 1.302 16.9683C2.88023 11.7656 6.21362 7.27103 10.7342 4.25047C15.2548 1.22992 20.6828 -0.129737 26.0935 0.403167C31.5042 0.936071 36.5627 3.32856 40.4071 7.173L37.8386 9.74149C34.5884 6.49129 30.3118 4.46861 25.7375 4.01808C21.1631 3.56754 16.5741 4.71704 12.7523 7.2707C8.93042 9.82437 6.11228 13.6242 4.77799 18.0228C3.44371 22.4213 3.67584 27.1464 5.43483 31.393C7.19383 35.6396 10.3709 39.1449 14.4246 41.3117C18.4783 43.4784 23.1579 44.1726 27.6661 43.2759C32.1742 42.3791 36.232 39.947 39.148 36.3939C42.0639 32.8408 43.6577 28.3865 43.6577 23.79H47.2901Z" fill="white"/>
<path d="M15.3058 39.0959C11.7648 37.133 9.01381 34.003 7.52173 30.2393C6.02966 26.4755 5.88877 22.3109 7.12308 18.4549C8.35739 14.5989 10.8905 11.2902 14.2909 9.09252C17.6912 6.89484 21.7484 5.94418 25.7711 6.4025C29.7938 6.86083 33.5331 8.69979 36.3519 11.6061C39.1707 14.5123 40.8946 18.3061 41.2299 22.3409C41.5652 26.3757 40.4911 30.4019 38.1906 33.7336C35.8901 37.0652 32.5055 39.4961 28.6137 40.6121L27.8681 38.0119C31.1584 37.0684 34.0198 35.0133 35.9647 32.1966C37.9096 29.3799 38.8177 25.976 38.5342 22.5649C38.2508 19.1537 36.7933 15.9464 34.4102 13.4893C32.0271 11.0323 28.8658 9.47758 25.4649 9.0901C22.064 8.70261 18.6339 9.50633 15.7592 11.3643C12.8844 13.2223 10.7428 16.0196 9.6993 19.2795C8.65577 22.5395 8.77488 26.0604 10.0363 29.2424C11.2978 32.4244 13.6235 35.0706 16.6172 36.73L15.3058 39.0959Z" fill="white"/>
<path d="M23.7901 11.29C26.682 11.29 29.4845 12.2927 31.72 14.1274C33.9555 15.962 35.4857 18.515 36.0499 21.3514C36.6141 24.1877 36.1774 27.132 34.8141 29.6825C33.4509 32.2329 31.2455 34.2318 28.5736 35.3385C25.9018 36.4452 22.929 36.5912 20.1615 35.7517C17.3941 34.9123 15.0034 33.1392 13.3967 30.7346C11.7901 28.3301 11.0668 25.4428 11.3503 22.5648C11.6338 19.6868 12.9064 16.9961 14.9513 14.9512L16.3175 16.3174C14.5887 18.0462 13.5128 20.321 13.2731 22.7542C13.0335 25.1873 13.6449 27.6283 15.0032 29.6612C16.3616 31.6941 18.3828 33.1931 20.7224 33.9028C23.0621 34.6125 25.5754 34.4891 27.8343 33.5534C30.0931 32.6178 31.9576 30.9279 33.1101 28.7717C34.2627 26.6154 34.6319 24.1263 34.1549 21.7283C33.6779 19.3303 32.3842 17.172 30.4943 15.6209C28.6043 14.0699 26.235 13.2221 23.7901 13.2221L23.7901 11.29Z" fill="white"/>
<path d="M16.3201 19.7342C17.2585 18.0059 18.767 16.6565 20.5887 15.9159C22.4105 15.1753 24.4326 15.0892 26.3107 15.6723C28.1888 16.2555 29.8065 17.4718 30.8883 19.114C31.9701 20.7562 32.4491 22.7227 32.2435 24.6785C32.038 26.6342 31.1606 28.4582 29.761 29.8396C28.3614 31.221 26.5261 32.0744 24.5678 32.2543C22.6096 32.4343 20.6495 31.9297 19.0216 30.8264C17.3937 29.7232 16.1986 28.0897 15.6401 26.2041L17.0173 25.7962C17.4815 27.3631 18.4745 28.7206 19.8274 29.6374C21.1802 30.5542 22.8091 30.9736 24.4364 30.824C26.0638 30.6745 27.5889 29.9653 28.752 28.8173C29.9151 27.6694 30.6442 26.1536 30.815 24.5284C30.9859 22.9031 30.5879 21.2689 29.6889 19.9042C28.7898 18.5395 27.4455 17.5287 25.8847 17.0441C24.324 16.5595 22.6436 16.631 21.1297 17.2465C19.6158 17.862 18.3622 18.9833 17.5824 20.4195L16.3201 19.7342Z" fill="white"/>
<path d="M27.5097 26.3227C26.9238 27.1833 26.0576 27.8141 25.0587 28.1076C24.0599 28.4011 22.9901 28.3392 22.0318 27.9324C21.0735 27.5256 20.2858 26.7991 19.8031 25.8767C19.3203 24.9543 19.1724 23.893 19.3844 22.8737C19.5964 21.8544 20.1553 20.9402 20.9658 20.2868C21.7763 19.6334 22.7883 19.2812 23.8294 19.2903C24.8704 19.2994 25.8761 19.6691 26.6751 20.3366C27.4741 21.0041 28.0169 21.9279 28.2111 22.9507L27.3835 23.1079C27.2257 22.2765 26.7845 21.5256 26.135 20.9831C25.4856 20.4406 24.6682 20.14 23.822 20.1326C22.9758 20.1252 22.1533 20.4115 21.4945 20.9426C20.8357 21.4737 20.3814 22.2168 20.2091 23.0453C20.0368 23.8737 20.1571 24.7363 20.5494 25.4861C20.9418 26.2358 21.582 26.8263 22.3609 27.1569C23.1399 27.4876 24.0094 27.5379 24.8213 27.2993C25.6331 27.0608 26.3372 26.5481 26.8134 25.8486L27.5097 26.3227Z" fill="white"/>
<path d="M22.9968 21.4192C23.5453 21.2357 24.1405 21.248 24.6809 21.4541C25.2214 21.6602 25.6736 22.0473 25.9606 22.5495C26.2476 23.0517 26.3516 23.6378 26.2549 24.208C26.1582 24.7783 25.8668 25.2974 25.4303 25.6768C24.9937 26.0563 24.4392 26.2726 23.861 26.289C23.2828 26.3054 22.7169 26.1209 22.2596 25.7668C21.8022 25.4127 21.4818 24.911 21.353 24.3471C21.2241 23.7833 21.2947 23.1922 21.5528 22.6746L22.4295 23.1117C22.2726 23.4265 22.2296 23.7859 22.308 24.1288C22.3864 24.4717 22.5812 24.7768 22.8593 24.9922C23.1374 25.2075 23.4816 25.3197 23.8332 25.3098C24.1848 25.2998 24.5221 25.1682 24.7875 24.9375C25.053 24.7067 25.2302 24.391 25.289 24.0442C25.3478 23.6975 25.2846 23.341 25.1101 23.0356C24.9355 22.7303 24.6605 22.4948 24.3318 22.3695C24.0032 22.2442 23.6413 22.2367 23.3077 22.3483L22.9968 21.4192Z" fill="white"/>
<circle cx="23.7901" cy="23.79" r="0.5" transform="rotate(-180 23.7901 23.79)" fill="white"/>
</svg>
