<svg width="134" height="138" viewBox="0 0 134 138" fill="none" xmlns="http://www.w3.org/2000/svg">
<path d="M118.193 75.762C118.468 73.554 118.675 71.346 118.675 69C118.675 66.654 118.468 64.446 118.193 62.238L132.726 50.853C134.035 49.818 134.379 47.955 133.553 46.437L119.777 22.563C118.95 21.045 117.091 20.493 115.575 21.045L98.4243 27.945C94.8426 25.185 90.9853 22.908 86.7836 21.183L84.1662 2.898C83.9596 1.242 82.5131 0 80.7911 0H53.2393C51.5173 0 50.0708 1.242 49.8642 2.898L47.2468 21.183C43.0451 22.908 39.1879 25.254 35.6061 27.945L18.4551 21.045C16.8709 20.424 15.08 21.045 14.2535 22.563L0.477553 46.437C-0.417881 47.955 -0.00460324 49.818 1.30411 50.853L15.8377 62.238C15.5622 64.446 15.3555 66.723 15.3555 69C15.3555 71.277 15.5622 73.554 15.8377 75.762L1.30411 87.147C-0.00460324 88.182 -0.349002 90.045 0.477553 91.563L14.2535 115.437C15.08 116.955 16.9398 117.507 18.4551 116.955L35.6061 110.055C39.1879 112.815 43.0451 115.092 47.2468 116.817L49.8642 135.102C50.0708 136.758 51.5173 138 53.2393 138H80.7911C82.5131 138 83.9596 136.758 84.1662 135.102L86.7836 116.817C90.9853 115.092 94.8426 112.746 98.4243 110.055L115.575 116.955C117.16 117.576 118.95 116.955 119.777 115.437L133.553 91.563C134.379 90.045 134.035 88.182 132.726 87.147L118.193 75.762ZM67.0152 93.15C53.7215 93.15 42.9074 82.317 42.9074 69C42.9074 55.683 53.7215 44.85 67.0152 44.85C80.309 44.85 91.1231 55.683 91.1231 69C91.1231 82.317 80.309 93.15 67.0152 93.15Z" fill="black"/>
</svg>
